<?xml version="1.0" standalone="no"?>
<!DOCTYPE svg PUBLIC "-//W3C//DTD SVG 20010904//EN"
 "http://www.w3.org/TR/2001/REC-SVG-20010904/DTD/svg10.dtd">
<svg version="1.0" xmlns="http://www.w3.org/2000/svg"
 width="512.000000pt" height="512.000000pt" viewBox="0 0 512.000000 512.000000"
 preserveAspectRatio="xMidYMid meet">

<g transform="translate(0.000000,512.000000) scale(0.100000,-0.100000)"
fill="#000000" stroke="none">
<path d="M4472 5050 c-61 -38 -62 -43 -62 -535 l0 -445 -152 153 c-250 251
-487 412 -798 540 -502 208 -1097 232 -1615 67 -372 -119 -689 -312 -966 -589
-235 -236 -402 -486 -526 -790 -204 -500 -227 -1090 -63 -1606 118 -372 311
-687 589 -966 385 -384 846 -610 1389 -679 622 -80 1250 94 1762 488 125 97
334 310 431 442 293 394 453 841 476 1330 5 106 3 131 -11 158 -23 44 -71 72
-125 72 -37 0 -49 -6 -81 -37 l-37 -38 -7 -120 c-32 -572 -239 -1049 -621
-1430 -401 -401 -925 -618 -1495 -618 -569 0 -1095 217 -1495 618 -401 401
-618 926 -618 1495 0 569 217 1094 618 1495 401 401 925 618 1495 618 538 0
1018 -185 1428 -552 79 -70 212 -216 212 -231 0 -6 -169 -10 -442 -10 -427 0
-444 -1 -476 -20 -34 -21 -62 -71 -62 -111 0 -36 32 -90 64 -110 30 -18 63
-19 714 -19 l682 0 0 665 c0 586 -2 669 -16 705 -30 74 -122 103 -192 60z"/>
</g>
</svg>
